<?xml version="1.0" encoding="UTF-8" standalone="no"?>
<!-- Created with Inkscape (http://www.inkscape.org/) -->

<svg
   width="62.69643mm"
   height="45.024124mm"
   viewBox="0 0 62.69643 45.024124"
   version="1.1"
   id="svg1"
   xml:space="preserve"
   xmlns="http://www.w3.org/2000/svg"
   xmlns:svg="http://www.w3.org/2000/svg"><defs
     id="defs1" /><g
     id="layer1"
     transform="translate(-5.9851643,-76.155046)"><g
       id="g5"><path
         d="m 8.6046427,76.155042 c -1.4334769,0 -2.6194783,1.186518 -2.6194783,2.619995 v 39.784653 c 0,1.43348 1.1860014,2.61948 2.6194783,2.61948 H 66.061601 c 1.433477,0 2.619995,-1.186 2.619995,-2.61948 V 78.775037 c 0,-1.433477 -1.186518,-2.619995 -2.619995,-2.619995 z m 28.4478763,4.528405 c 4.412887,-0.06853 8.852161,1.473167 12.357385,4.636927 7.01045,6.327521 7.941407,17.029246 2.129069,24.472406 l -2.085661,-1.62884 c 4.973327,-6.36874 4.182065,-15.466753 -1.816426,-20.880896 -2.714472,-2.450038 -6.070679,-3.762338 -9.471774,-3.946012 a 1.1121402,1.1121402 0 0 1 -0.798917,0.403593 1.4265624,1.4265624 0 0 0 0.782381,-0.40411 c -4.109269,-0.217402 -8.28303,1.212144 -11.469068,4.272608 -5.827479,5.597796 -6.334509,14.714617 -1.16582,20.925857 l -2.035018,1.69343 c -6.040658,-7.25909 -5.441678,-17.985025 1.368909,-24.527181 3.405294,-3.271078 7.792054,-4.949252 12.20494,-5.017782 z m 0.256315,3.917074 c 7.738717,0 14.033769,6.295564 14.033769,14.034285 0,7.738714 -6.295052,14.034284 -14.033769,14.034284 -7.738716,0 -14.034802,-6.29557 -14.034802,-14.034284 0,-7.738721 6.296086,-14.034285 14.034802,-14.034285 z M 10.996228,113.99046 a 1.765582,1.765582 0 0 1 1.765267,1.76578 1.765582,1.765582 0 0 1 -1.765267,1.76527 1.765582,1.765582 0 0 1 -1.7657837,-1.76527 1.765582,1.765582 0 0 1 1.7657837,-1.76578 z m 5.264278,0 a 1.765582,1.765582 0 0 1 1.765784,1.76578 1.765582,1.765582 0 0 1 -1.765784,1.76527 1.765582,1.765582 0 0 1 -1.765784,-1.76527 1.765582,1.765582 0 0 1 1.765784,-1.76578 z m 5.264278,0 a 1.765582,1.765582 0 0 1 1.765784,1.76578 1.765582,1.765582 0 0 1 -1.765784,1.76527 1.765582,1.765582 0 0 1 -1.765267,-1.76527 1.765582,1.765582 0 0 1 1.765267,-1.76578 z m 38.661723,0 a 1.765582,1.765582 0 0 1 1.765784,1.76578 1.765582,1.765582 0 0 1 -1.765784,1.76527 1.765582,1.765582 0 0 1 -1.765784,-1.76527 1.765582,1.765582 0 0 1 1.765784,-1.76578 z"
         style="baseline-shift:baseline;display:inline;overflow:visible;vector-effect:none;fill:currentColor;stroke-width:0.258486;enable-background:accumulate;stop-color:#000000"
         id="path5" /><path
         d="m 37.308637,86.652181 c -6.629877,0 -11.982745,5.352868 -11.982745,11.982746 0,6.629873 5.352868,11.982213 11.982745,11.982213 6.629878,0 11.982211,-5.35234 11.982211,-11.982213 0,-6.629878 -5.352333,-11.982746 -11.982211,-11.982746 z"
         style="baseline-shift:baseline;display:inline;overflow:visible;vector-effect:none;fill:currentColor;stroke-width:0.258486;enable-background:accumulate;stop-color:#000000"
         id="path8" /></g><ellipse
       style="fill:none;fill-opacity:1;stroke:none;stroke-width:2.64583;stroke-dasharray:none;stroke-opacity:1"
       id="path2"
       cx="22.625563"
       cy="107.33881"
       rx="0.9439013"
       ry="0.58336306" /></g></svg>
